<?xml version="1.0" encoding="utf-8"?>
<!-- Generator: Adobe Illustrator 25.0.0, SVG Export Plug-In . SVG Version: 6.00 Build 0)  -->
<svg version="1.1" id="图层_1" xmlns="http://www.w3.org/2000/svg" xmlns:xlink="http://www.w3.org/1999/xlink" x="0px" y="0px"
	 viewBox="0 0 1000 683.5" style="enable-background:new 0 0 1000 683.5;" xml:space="preserve">
<style type="text/css">
	.st0{fill:#FFFFFF;}
</style>
<g>
	<polygon class="st0" points="122.8,262.2 122.8,296.3 101.1,296.3 101.1,420.4 82.1,420.4 82.1,296.3 60.6,296.3 60.6,262.2 	"/>
	<polygon class="st0" points="195,262.2 195,295.2 156.7,295.2 156.7,324.7 191.2,324.7 191.2,357.5 156.7,357.7 156.7,387.5 
		196,387.5 196,420.4 137.7,420.4 137.7,262.2 	"/>
	<path class="st0" d="M260,355.8c1.1-0.4,2.7-1.1,4.4-2.4c5.4-4,11.9-11.9,11.9-35.5c0-27.6-0.8-43.5-13-51.4
		c-3.9-2.5-11.1-4.3-20.6-4.3h-32.6v158.2H229v-61.9h11.3h0.4l13,61.9h21.4L260,355.8z M254.6,318.6c-0.3,3-1,6.5-3.5,8.3
		c-2.4,1.6-5.6,1.3-8.3,1.3H229v-33h13.8c2.9,0,6.1,0.1,8.4,2.2c2.2,2.1,3,5.4,3.4,8.4C255.2,310,255.1,314.3,254.6,318.6z"/>
	<path class="st0" d="M343.4,355.8c1.1-0.4,2.7-1.1,4.4-2.4c5.4-4,11.9-11.9,11.9-35.5c0-27.6-0.8-43.5-13-51.4
		c-3.9-2.5-11.1-4.3-20.6-4.3h-32.6v158.2h18.9v-61.9h11.3h0.4l13,61.9h21.4L343.4,355.8z M338,318.6c-0.3,3-1,6.5-3.5,8.3
		c-2.4,1.6-5.6,1.3-8.3,1.3h-13.8v-33h13.8c2.9,0,6.1,0.1,8.4,2.2c2.2,2.1,3,5.4,3.4,8.4C338.5,310,338.4,314.3,338,318.6z"/>
	<path class="st0" d="M922.8,355.8c1.1-0.4,2.7-1.1,4.4-2.4c5.4-4,11.9-11.9,11.9-35.5c0-27.6-0.8-43.5-13-51.4
		c-3.9-2.5-11.1-4.3-20.6-4.3h-35.2v158.2h18.9v-61.9H903h0.4l13,61.9h21.4L922.8,355.8z M917.4,318.6c-0.3,3-1,6.5-3.5,8.3
		c-2.4,1.6-5.6,1.3-8.3,1.3h-16.4v-33h16.4c2.9,0,6.1,0.1,8.4,2.2c2.2,2.1,3,5.4,3.4,8.4C918,310,917.9,314.3,917.4,318.6z"/>
	<polygon class="st0" points="482.7,262.2 502,344.2 521.3,262.2 544.6,262.2 544.6,420.4 525.2,420.4 525.1,320.2 508.2,404.6 
		495.8,404.6 478.9,320.2 478.9,420.4 459.5,420.4 459.5,262.2 	"/>
	<path class="st0" d="M607.1,262.2h-24.6l-28.6,158.2h19.5l5.1-28h31.4l5,28H635L607.1,262.2z M584.1,360.8l10.1-56.4l9.9,56.4
		H584.1z"/>
	<path class="st0" d="M422.2,262.2h-24.6L369,420.4h19.5l5.1-28H425l5,28h20.2L422.2,262.2z M399.3,360.8l10.1-56.4l9.9,56.4H399.3z
		"/>
	<path class="st0" d="M673.7,292.7c-4.6,0-10.1,3.6-10.1,10.8c0,26.2,43.4,11.3,43.4,68.1c0,32.3-15.6,48.7-31.8,48.7
		c-12.1,0-24.7-9.7-33.4-25.3l7.4-32.3c7.5,14,18.7,23.9,26.3,23.9c5.6,0,11.7-4.5,11.7-12.9c0-26.8-43.4-10.6-43.4-66.6
		c0-29.6,14.1-48.3,31.6-48.3c10.7,0,21.4,7.2,29,17.8l-7.1,32.7C689.5,300.2,679.7,292.7,673.7,292.7z"/>
	<polygon class="st0" points="780.6,262.2 780.6,296.3 756.2,296.3 756.2,420.4 737.3,420.4 737.3,296.3 713.2,296.3 713.2,262.2 	
		"/>
	<polygon class="st0" points="855.4,262.2 855.4,295.2 814.5,295.2 814.5,324.7 851.6,324.7 851.6,357.5 814.5,357.7 814.5,387.5 
		856.4,387.5 856.4,420.4 795.5,420.4 795.5,262.2 	"/>
</g>
<g>
	<path class="st0" d="M499.9,577.5c-15.2,0-30.5-1.6-45.6-4.9l-0.4-0.1L64.3,468.3c-25.3-5.5-43.6-30-43.6-58.4V266.3
		c0-28.5,18.5-53.1,44-58.5L456,106.5c29.1-6,58.6-6,87.7,0l0.4,0.1L935,207.8c25.5,5.4,44,29.9,44,58.5v143.6
		c0,28.3-18.3,52.8-43.6,58.4L545.5,572.7C530.3,575.9,515.1,577.5,499.9,577.5z M457.7,557.5c28,6,56.3,6,84.3,0l389.9-104.4
		c18.3-3.9,31.5-22.1,31.5-43.2V266.3c0-21.3-13.4-39.5-31.8-43.3l-0.4-0.1L540.4,121.6c-26.9-5.5-54.2-5.5-81.1,0L68.1,223
		c-18.4,3.8-31.8,22-31.8,43.3v143.6c0,21.1,13.3,39.3,31.5,43.2l0.4,0.1L457.7,557.5z"/>
</g>
</svg>
