<?xml version="1.0" encoding="utf-8"?>
<!-- Generator: Adobe Illustrator 25.0.0, SVG Export Plug-In . SVG Version: 6.00 Build 0)  -->
<svg version="1.1" id="图层_1" xmlns="http://www.w3.org/2000/svg" xmlns:xlink="http://www.w3.org/1999/xlink" x="0px" y="0px"
	 viewBox="0 0 120 120" style="enable-background:new 0 0 120 120;" xml:space="preserve">
<style type="text/css">
	.st0{fill:url(#SVGID_1_);}
	.st1{fill:url(#SVGID_2_);}
</style>
<linearGradient id="SVGID_1_" gradientUnits="userSpaceOnUse" x1="6.1" y1="60.25" x2="113.5862" y2="60.25" gradientTransform="matrix(1 0 0 -1 0 122)">
	<stop  offset="0" style="stop-color:#74B6D5"/>
	<stop  offset="1" style="stop-color:#4084BA"/>
</linearGradient>
<path class="st0" d="M49.5,58.6h-36c-4,0-7.3-3.3-7.3-7.3V15.8c0-4,3.3-7.3,7.3-7.3h36c4,0,7.3,3.3,7.3,7.3v35.5
	C56.7,55.3,53.4,58.6,49.5,58.6z M106.4,58.6h-36c-4,0-7.3-3.3-7.3-7.3V15.8c0-4,3.3-7.3,7.3-7.3h36c4,0,7.3,3.3,7.3,7.3v35.5
	C113.6,55.3,110.4,58.6,106.4,58.6z M56.7,107.7V72.2c0-4-3.3-7.3-7.3-7.3h-36c-4,0-7.3,3.3-7.3,7.3v35.5c0,4,3.3,7.3,7.3,7.3h36
	C53.4,114.9,56.7,111.7,56.7,107.7z M113.6,107.7V72.2c0-4-3.3-7.3-7.3-7.3h-36c-4,0-7.3,3.3-7.3,7.3v35.5c0,4,3.3,7.3,7.3,7.3h36
	C110.4,114.9,113.6,111.7,113.6,107.7z"/>
<linearGradient id="SVGID_2_" gradientUnits="userSpaceOnUse" x1="6" y1="60.3" x2="113.9" y2="60.3" gradientTransform="matrix(1 0 0 -1 0 122)">
	<stop  offset="0" style="stop-color:#5E9FC0"/>
	<stop  offset="1" style="stop-color:#3477AA"/>
</linearGradient>
<path class="st1" d="M106.4,115.1h-36c-4.1,0-7.5-3.4-7.5-7.5V72.2c0-4.1,3.4-7.5,7.5-7.5h36c4.1,0,7.5,3.4,7.5,7.5v35.5
	C113.8,111.8,110.5,115.1,106.4,115.1z M70.3,65.1c-3.9,0-7.1,3.2-7.1,7.1v35.5c0,3.9,3.2,7.1,7.1,7.1h36c3.9,0,7.1-3.2,7.1-7.1
	V72.2c0-3.9-3.2-7.1-7.1-7.1H70.3z M49.5,115.1h-36c-4.1,0-7.5-3.4-7.5-7.5V72.2c0-4.1,3.4-7.5,7.5-7.5h36c4.1,0,7.5,3.4,7.5,7.5
	v35.5C56.9,111.8,53.6,115.1,49.5,115.1z M13.4,65.1c-3.9,0-7.1,3.2-7.1,7.1v35.5c0,3.9,3.2,7.1,7.1,7.1h36c3.9,0,7.1-3.2,7.1-7.1
	V72.2c0-3.9-3.2-7.1-7.1-7.1H13.4z M106.4,58.8h-36c-4.1,0-7.5-3.4-7.5-7.5V15.8c0-4.1,3.4-7.5,7.5-7.5h36c4.1,0,7.5,3.4,7.5,7.5
	v35.5C113.8,55.5,110.5,58.8,106.4,58.8z M70.3,8.8c-3.9,0-7.1,3.2-7.1,7.1v35.5c0,3.9,3.2,7.1,7.1,7.1h36c3.9,0,7.1-3.2,7.1-7.1
	V15.8c0-3.9-3.2-7.1-7.1-7.1L70.3,8.8L70.3,8.8z M49.5,58.8h-36c-4.1,0-7.5-3.4-7.5-7.5V15.8c0-4.1,3.4-7.5,7.5-7.5h36
	c4.1,0,7.5,3.4,7.5,7.5v35.5C56.9,55.5,53.6,58.8,49.5,58.8z M13.4,8.8c-3.9,0-7.1,3.2-7.1,7.1v35.5c0,3.9,3.2,7.1,7.1,7.1h36
	c3.9,0,7.1-3.2,7.1-7.1V15.8c0-3.9-3.2-7.1-7.1-7.1L13.4,8.8L13.4,8.8z"/>
</svg>
