<?xml version="1.0" encoding="utf-8"?>
<!-- Generator: Adobe Illustrator 25.0.0, SVG Export Plug-In . SVG Version: 6.00 Build 0)  -->
<svg version="1.1" id="图层_1" xmlns="http://www.w3.org/2000/svg" xmlns:xlink="http://www.w3.org/1999/xlink" x="0px" y="0px"
	 viewBox="0 0 120 120" style="enable-background:new 0 0 120 120;" xml:space="preserve">
<style type="text/css">
	.st0{fill:url(#SVGID_1_);}
	.st1{fill-rule:evenodd;clip-rule:evenodd;fill:#FFFFFF;}
	.st2{fill-rule:evenodd;clip-rule:evenodd;fill:url(#SVGID_2_);}
	.st3{fill:#FFFFFF;}
</style>
<linearGradient id="SVGID_1_" gradientUnits="userSpaceOnUse" x1="58.3446" y1="123.6444" x2="59.9098" y2="43.8184">
	<stop  offset="0" style="stop-color:#003365"/>
	<stop  offset="1" style="stop-color:#004D9B"/>
</linearGradient>
<circle class="st0" cx="59.6" cy="57.7" r="55.4"/>
<path class="st1" d="M59.6,57.7L59.6,57.7L59.6,57.7z"/>
<linearGradient id="SVGID_2_" gradientUnits="userSpaceOnUse" x1="59.6373" y1="64.2857" x2="59.6373" y2="64.2857" gradientTransform="matrix(1 0 0 -1 0 122)">
	<stop  offset="0" style="stop-color:#0FCAFC"/>
	<stop  offset="1" style="stop-color:#1767EF"/>
</linearGradient>
<path class="st2" d="M59.6,57.7L59.6,57.7L59.6,57.7z"/>
<g>
	<path class="st3" d="M14.2,64V46h12.1v1.6v1.6h-8.7V53h8.1v1.5v1.6h-8.1v4.7h9.1v1.6V64H14.2z"/>
	<path class="st3" d="M32.2,57.2l-4-6.5h1.9h1.9l2.1,3.9l2-3.9h1.9H40l-4,6.6l4.1,6.7h-2h-2l-2.1-4.1L32,64H30h-1.9L32.2,57.2z"/>
	<path class="st3" d="M44.9,64.3c-1.1,0-2-0.4-2.7-1.1s-1-1.6-1-2.8c0-1.2,0.3-2.2,0.9-2.9c0.6-0.7,1.5-1.2,2.7-1.4l2.1-0.3
		c0.6-0.1,1-0.2,1.4-0.4c0.2-0.1,0.3-0.2,0.4-0.4c0.1-0.2,0.1-0.4,0.1-0.6c0-0.4-0.2-0.7-0.5-0.9c-0.4-0.3-0.9-0.4-1.6-0.4
		c-0.6,0-1.1,0.2-1.4,0.5c-0.3,0.3-0.5,0.8-0.5,1.4h-3.1c0.1-1.6,0.6-2.7,1.5-3.5c0.9-0.8,2.2-1.2,4-1.2c1.5,0,2.7,0.3,3.6,1
		c0.9,0.7,1.3,1.6,1.3,2.9v7.4c0,0.6,0,1,0.1,1.3c0.1,0.2,0.3,0.4,0.5,0.6v0V64h-1.7h-1.7v0c-0.1-0.5-0.2-1.1-0.3-1.6l0,0
		C47.8,63.7,46.5,64.3,44.9,64.3z M48.8,59.1v-1.5c-0.4,0.2-0.9,0.4-1.5,0.5l-1.2,0.2c-0.6,0.1-1,0.3-1.3,0.6
		c-0.3,0.3-0.4,0.7-0.4,1.2c0,0.5,0.1,0.9,0.4,1.2c0.3,0.3,0.6,0.5,1.1,0.5c1,0,1.9-0.4,2.5-1.2c0.1-0.2,0.2-0.4,0.3-0.7
		C48.8,59.7,48.8,59.4,48.8,59.1z"/>
	<path class="st3" d="M54.7,50.7h1.5h1.5v2.1c0.1-0.4,0.3-0.7,0.5-1c0.7-1,1.7-1.5,3.1-1.5c1.1,0,2,0.4,2.6,1.2
		c0.3,0.3,0.5,0.6,0.6,1l0.4-0.7c0.7-1,1.6-1.5,2.9-1.5c1.3,0,2.4,0.4,3.1,1.3c0.7,0.9,1.1,2,1.1,3.6V64h-1.6H69v-7.8
		c0-1-0.1-1.7-0.4-2.2c-0.3-0.5-0.8-0.7-1.4-0.7c-0.7,0-1.2,0.2-1.5,0.7c-0.4,0.5-0.5,1.1-0.5,1.9V64h-1.6h-1.6v-8.4
		c0-0.8-0.2-1.4-0.5-1.8c-0.3-0.4-0.8-0.6-1.4-0.6s-1.1,0.2-1.5,0.7c-0.3,0.5-0.5,1.1-0.5,1.9V64h-1.6h-1.6V50.7z"/>
	<path class="st3" d="M75.1,50.7h1.5h1.5v2l0.2-0.3c0.9-1.3,2-2,3.4-2c1.5,0,2.8,0.6,3.7,1.9s1.4,2.9,1.4,4.9c0,2.2-0.5,3.9-1.4,5.2
		s-2.2,2-3.7,2c-1.4,0-2.5-0.6-3.4-1.9l-0.1-0.1v6.8h-1.6h-1.6V50.7z M80.9,61.5c0.9,0,1.5-0.4,2-1.1c0.5-0.7,0.7-1.7,0.7-2.9
		c0-1.3-0.2-2.3-0.7-3c-0.5-0.7-1.2-1.1-2-1.1s-1.5,0.4-2,1.1c-0.5,0.7-0.7,1.8-0.7,3.1c0,1.2,0.2,2.2,0.7,2.8
		C79.4,61.1,80,61.5,80.9,61.5z"/>
	<path class="st3" d="M89.3,46h1.6h1.6V64h-1.6h-1.6V46z"/>
	<path class="st3" d="M100.4,64.3c-1.9,0-3.3-0.6-4.3-1.9c-1-1.2-1.5-3-1.5-5.3c0-2.1,0.5-3.8,1.5-5c1-1.2,2.4-1.8,4.3-1.8
		c1.9,0,3.3,0.6,4.3,1.8c1,1.2,1.5,3,1.5,5.2c0,0.3,0,0.5-0.1,0.8h-8.3c0.1,1,0.3,1.8,0.6,2.4c0.4,0.7,1.2,1,2.2,1
		c0.5,0,0.9-0.2,1.3-0.5c0.4-0.3,0.7-0.7,0.7-1.1h3.3c-0.3,1.4-0.9,2.4-1.9,3.2C103.1,63.9,101.9,64.3,100.4,64.3z M102.8,56
		c-0.1-0.8-0.3-1.4-0.6-1.9c-0.4-0.6-1-0.9-1.9-0.9c-0.8,0-1.5,0.3-1.9,1c-0.3,0.4-0.5,1-0.6,1.7H102.8z"/>
</g>
</svg>
